<?xml version="1.0" encoding="UTF-8"?>
<!-- Generated by Pixelmator Pro 3.5.9 -->
<svg width="1024" height="1024" viewBox="0 0 1024 1024" xmlns="http://www.w3.org/2000/svg">
    <path id="Rectangle" fill="#000000" fill-rule="evenodd" stroke="none" visibility="hidden" d="M 0 1024 L 1024 1024 L 1024 0 L 0 0 Z"/>
    <g id="Group-1">
        <path id="Path" fill="none" stroke="#00bbd6" stroke-width="55.384911" stroke-linecap="round" stroke-linejoin="round" d="M 472.187531 486.519409 L 580.43988 124"/>
        <path id="path1" fill="none" stroke="#ffffff" stroke-width="55.384911" stroke-linecap="round" stroke-linejoin="round" d="M 379.040192 219.664856 L 290.927826 307.777222 L 379.040192 395.889587"/>
        <path id="path2" fill="none" stroke="#ffffff" stroke-width="55.384911" stroke-linecap="round" stroke-linejoin="round" d="M 673.587219 395.889587 L 761.699585 307.777222 L 673.587219 219.664856"/>
        <path id="path3" fill="#ffffff" stroke="none" d="M 227.607773 622.343384 C 240.926834 622.343384 247.586624 629.432617 247.586624 643.611145 L 247.586624 728.199036 L 225.029861 728.199036 L 225.029861 693.236084 L 208.75676 693.236084 L 208.75676 728.199036 L 186.199997 728.199036 L 186.199997 643.611145 C 186.199997 629.432617 192.859787 622.343384 206.178848 622.343384 L 227.607773 622.343384 Z M 208.75676 675.835083 L 225.029861 675.835083 L 225.029861 640.872131 C 225.029861 640.011169 224.707611 639.260925 224.063141 638.616455 C 223.525909 637.971985 222.828064 637.64978 221.968582 637.64978 L 211.818039 637.64978 C 210.958572 637.64978 210.206848 637.971985 209.562363 638.616455 C 209.025131 639.260925 208.75676 640.011169 208.75676 640.872131 L 208.75676 675.835083 Z M 337.226105 623.95459 C 350.545166 623.95459 357.204956 631.043823 357.204956 645.222351 L 357.204956 666.006836 C 357.204956 680.185303 350.545166 687.274658 337.226105 687.274658 L 319.019562 687.274658 L 319.019562 728.199036 L 296.462799 728.199036 L 296.462799 623.95459 L 337.226105 623.95459 Z M 334.648193 668.584717 L 334.648193 642.64447 C 334.648193 641.783447 334.325958 641.033264 333.681458 640.388794 C 333.144226 639.744263 332.445862 639.421997 331.586884 639.421997 L 319.019562 639.421997 L 319.019562 671.807129 L 331.586884 671.807129 C 332.445862 671.807129 333.144226 671.484863 333.681458 670.840454 C 334.325958 670.195923 334.648193 669.445679 334.648193 668.584717 Z M 441.355774 623.95459 C 454.674835 623.95459 461.334595 631.043823 461.334595 645.222351 L 461.334595 666.006836 C 461.334595 680.185303 454.674835 687.274658 441.355774 687.274658 L 423.149261 687.274658 L 423.149261 728.199036 L 400.592468 728.199036 L 400.592468 623.95459 L 441.355774 623.95459 Z M 438.777863 668.584717 L 438.777863 642.64447 C 438.777863 641.783447 438.455597 641.033264 437.811127 640.388794 C 437.273926 639.744263 436.57605 639.421997 435.716583 639.421997 L 423.149261 639.421997 L 423.149261 671.807129 L 435.716583 671.807129 C 436.57605 671.807129 437.273926 671.484863 437.811127 670.840454 C 438.455597 670.195923 438.777863 669.445679 438.777863 668.584717 Z M 611.085388 623.95459 C 624.405457 623.95459 631.061707 631.043823 631.061707 645.222351 L 631.061707 706.931274 C 631.061707 721.109741 624.405457 728.199036 611.085388 728.199036 L 569.677612 728.199036 L 569.677612 623.95459 L 611.085388 623.95459 Z M 608.507446 709.509155 L 608.507446 642.483337 C 608.507446 641.622314 608.185181 640.872131 607.54071 640.227661 C 607.003479 639.583191 606.305603 639.260925 605.446167 639.260925 L 592.234314 639.260925 L 592.234314 712.731567 L 605.446167 712.731567 C 606.305603 712.731567 607.003479 712.409302 607.54071 711.764832 C 608.185181 711.120361 608.507446 710.370117 608.507446 709.509155 Z M 702.659302 709.509155 L 727.632813 709.509155 L 727.632813 728.199036 L 680.102478 728.199036 L 680.102478 623.95459 L 727.632813 623.95459 L 727.632813 642.322205 L 702.659302 642.322205 L 702.659302 666.812378 L 726.021667 666.812378 L 726.021667 684.535645 L 702.659302 684.535645 L 702.659302 709.509155 Z M 814.954651 623.95459 L 836.705872 623.95459 L 815.115784 728.199036 L 789.175537 728.199036 L 767.58551 623.95459 L 789.497742 623.95459 L 802.226196 700.003052 L 814.954651 623.95459 Z M 381.759583 882.310059 L 381.759583 866.19812 L 403.188507 866.19812 L 403.188507 879.732117 C 403.188507 893.910706 396.529236 901 383.209656 901 L 362.9086 901 C 349.589508 901 342.929718 893.910706 342.929718 879.732117 L 342.929718 814.800903 C 342.929718 800.622375 349.589508 793.533081 362.9086 793.533081 L 383.209656 793.533081 C 396.529236 793.533081 403.188507 800.622375 403.188507 814.800903 L 403.188507 824.62915 L 381.759583 824.62915 L 381.759583 812.06189 C 381.759583 811.200867 381.437347 810.450684 380.792877 809.806152 C 380.256134 809.161743 379.55777 808.839478 378.698303 808.839478 L 368.54776 808.839478 C 367.688812 808.839478 366.936584 809.161743 366.292114 809.806152 C 365.755371 810.450684 365.486511 811.200867 365.486511 812.06189 L 365.486511 882.310059 C 365.486511 883.171082 365.755371 883.921265 366.292114 884.565735 C 366.936584 885.210266 367.688812 885.532471 368.54776 885.532471 L 378.698303 885.532471 C 379.55777 885.532471 380.256134 885.210266 380.792877 884.565735 C 381.437347 883.921265 381.759583 883.171082 381.759583 882.310059 Z M 471.504822 880.376648 L 496.156128 880.376648 L 496.156128 899.388794 L 448.948029 899.388794 L 448.948029 795.144287 L 471.504822 795.144287 L 471.504822 880.376648 Z M 576.29303 795.144287 L 598.849854 795.144287 L 598.849854 879.732117 C 598.849854 893.910706 592.190063 901 578.870972 901 L 558.89209 901 C 545.57251 901 538.913269 893.910706 538.913269 879.732117 L 538.913269 795.144287 L 561.470032 795.144287 L 561.470032 881.665588 C 561.470032 882.526611 561.738403 883.276794 562.275635 883.921265 C 562.920105 884.565735 563.671814 884.887939 564.531311 884.887939 L 573.23175 884.887939 C 574.090759 884.887939 574.789124 884.565735 575.326355 883.921265 C 575.970825 883.276794 576.29303 882.526611 576.29303 881.665588 L 576.29303 795.144287 Z M 697.422913 842.352356 C 704.406433 844.824524 707.895691 850.514099 707.895691 859.43103 L 707.895691 878.120972 C 707.895691 892.299438 701.234375 899.388794 687.916809 899.388794 L 646.509033 899.388794 L 646.509033 795.144287 L 686.627808 795.144287 C 699.945435 795.144287 706.606689 802.233521 706.606689 816.412109 L 706.606689 825.918213 C 706.606689 834.512939 703.54541 839.990967 697.422913 842.352356 Z M 680.988647 810.450684 L 669.065796 810.450684 L 669.065796 838.324341 L 680.988647 838.324341 C 681.84967 838.324341 682.544495 838.002136 683.083252 837.357605 C 683.727722 836.713196 684.049927 835.962952 684.049927 835.101929 L 684.049927 813.673035 C 684.049927 812.812012 683.727722 812.06189 683.083252 811.417358 C 682.544495 810.772888 681.84967 810.450684 680.988647 810.450684 Z M 685.338867 880.698853 L 685.338867 857.336487 C 685.338867 856.475586 685.016663 855.725342 684.372192 855.080811 C 683.833435 854.436401 683.138611 854.114075 682.277588 854.114075 L 669.065796 854.114075 L 669.065796 883.921265 L 682.277588 883.921265 C 683.138611 883.921265 683.833435 883.598999 684.372192 882.954529 C 685.016663 882.310059 685.338867 881.559875 685.338867 880.698853 Z"/>
    </g>
</svg>
